<svg width="64" height="63" viewBox="0 0 64 63" fill="none" xmlns="http://www.w3.org/2000/svg">
<path d="M50.7691 5.69238H13.2306C9.34336 5.69238 6.19214 8.84361 6.19214 12.7308V50.2693C6.19214 54.1565 9.34336 57.3078 13.2306 57.3078H50.7691C54.6563 57.3078 57.8075 54.1565 57.8075 50.2693V12.7308C57.8075 8.84361 54.6563 5.69238 50.7691 5.69238Z" stroke="#D1D1D1" stroke-width="2" stroke-linejoin="round"/>
<path d="M46.0771 15.0767H17.9233C16.6276 15.0767 15.5771 16.1271 15.5771 17.4228V45.5767C15.5771 46.8724 16.6276 47.9228 17.9233 47.9228H46.0771C47.3729 47.9228 48.4233 46.8724 48.4233 45.5767V17.4228C48.4233 16.1271 47.3729 15.0767 46.0771 15.0767Z" stroke="#D1D1D1" stroke-width="2" stroke-linejoin="round"/>
<path d="M32 5.69231V1M43.7308 5.69231V1M20.2692 5.69231V1M32 62V57.3077M43.7308 62V57.3077M20.2692 62V57.3077M57.8077 31.5H62.5M57.8077 43.2308H62.5M57.8077 19.7692H62.5M1.5 31.5H6.19231M1.5 43.2308H6.19231M1.5 19.7692H6.19231" stroke="#D1D1D1" stroke-width="2" stroke-linecap="round" stroke-linejoin="round"/>
</svg>
