<svg width="12" height="12" viewBox="0 0 12 12" fill="none" xmlns="http://www.w3.org/2000/svg">
<path d="M2.91375 5.83333C2.91375 7.44392 4.22392 8.75408 5.8345 8.75408C7.44508 8.75408 8.75525 7.44392 8.75525 5.83333C8.75525 4.22275 7.44508 2.91258 5.8345 2.91258C4.22392 2.91258 2.91375 4.22275 2.91375 5.83333ZM5.25 9.91667H6.41667V11.6667H5.25V9.91667ZM5.25 0H6.41667V1.75H5.25V0ZM0 5.25H1.75V6.41667H0V5.25ZM9.91667 5.25H11.6667V6.41667H9.91667V5.25ZM2.12158 10.3705L1.29675 9.54567L2.534 8.30842L3.35883 9.13325L2.12158 10.3705ZM8.30783 2.534L9.54567 1.29617L10.3705 2.121L9.13267 3.35883L8.30783 2.534ZM2.534 3.35942L1.29675 2.12158L2.12217 1.29675L3.35883 2.53458L2.534 3.35942ZM10.3705 9.54567L9.54567 10.3705L8.30783 9.13267L9.13267 8.30783L10.3705 9.54567Z" fill="#1EE1B3"/>
</svg>
